<?xml version="1.0" standalone="yes"?>

<svg version="1.1" viewBox="0.0 0.0 64.0 48.0" fill="none" stroke="none" stroke-linecap="square" stroke-miterlimit="10" xmlns="http://www.w3.org/2000/svg" xmlns:xlink="http://www.w3.org/1999/xlink"><clipPath id="p.0"><path d="m0 0l64.0 0l0 48.0l-64.0 0l0 -48.0z" clip-rule="nonzero"></path></clipPath><g clip-path="url(#p.0)"><path fill="#000000" fill-opacity="0.0" d="m0 0l64.0 0l0 48.0l-64.0 0z" fill-rule="nonzero"></path><path fill="#ffffff" d="m0.51706034 8.968504l62.83465 0l0 38.645668l-62.83465 0z" fill-rule="nonzero"></path><path stroke="#ffffff" stroke-width="1.0" stroke-linejoin="round" stroke-linecap="butt" d="m0.51706034 8.968504l62.83465 0l0 38.645668l-62.83465 0z" fill-rule="nonzero"></path><path fill="#ffffff" d="m0.51706034 0.839895l21.35433 0l0 8.128609l-21.35433 0z" fill-rule="nonzero"></path><path stroke="#ffffff" stroke-width="1.0" stroke-linejoin="round" stroke-linecap="butt" d="m0.51706034 0.839895l21.35433 0l0 8.128609l-21.35433 0z" fill-rule="nonzero"></path><path fill="#000000" fill-opacity="0.0" d="m21.874016 4.3254595l40.501312 0l0 4.6430445l-40.501312 0z" fill-rule="nonzero"></path><path stroke="#ffffff" stroke-width="1.0" stroke-linejoin="round" stroke-linecap="butt" d="m21.874016 4.3254595l40.501312 0l0 4.6430445l-40.501312 0z" fill-rule="nonzero"></path></g></svg>

