<?xml version="1.0" standalone="yes"?>

<svg version="1.1" viewBox="0.0 0.0 64.0 64.0" fill="none" stroke="none" stroke-linecap="square" stroke-miterlimit="10" xmlns="http://www.w3.org/2000/svg" xmlns:xlink="http://www.w3.org/1999/xlink"><clipPath id="p.0"><path d="m0 0l64.0 0l0 64.0l-64.0 0l0 -64.0z" clip-rule="nonzero"></path></clipPath><g clip-path="url(#p.0)"><path fill="#000000" fill-opacity="0.0" d="m0 0l64.0 0l0 64.0l-64.0 0z" fill-rule="nonzero"></path><path fill="#ffffff" d="m1.1824147 1.1535434l15.716536 0l-5.2387934 4.9973254l-5.4804173 0l0 5.2278123l-4.9973254 4.7669888z" fill-rule="nonzero"></path><path stroke="#ffffff" stroke-width="1.0" stroke-linejoin="round" stroke-linecap="butt" d="m1.1824147 1.1535434l15.716536 0l-5.2387934 4.9973254l-5.4804173 0l0 5.2278123l-4.9973254 4.7669888z" fill-rule="nonzero"></path><path fill="#ffffff" d="m62.817585 1.1535434l0 15.716536l-4.997326 -5.2387934l0 -5.480417l-5.2278137 0l-4.766987 -4.9973254z" fill-rule="nonzero"></path><path stroke="#ffffff" stroke-width="1.0" stroke-linejoin="round" stroke-linecap="butt" d="m62.817585 1.1535434l0 15.716536l-4.997326 -5.2387934l0 -5.480417l-5.2278137 0l-4.766987 -4.9973254z" fill-rule="nonzero"></path><path fill="#ffffff" d="m1.1824147 62.84646l15.716536 0l-5.2387934 -4.997326l-5.4804173 0l0 -5.2278137l-4.9973254 -4.766987z" fill-rule="nonzero"></path><path stroke="#ffffff" stroke-width="1.0" stroke-linejoin="round" stroke-linecap="butt" d="m1.1824147 62.84646l15.716536 0l-5.2387934 -4.997326l-5.4804173 0l0 -5.2278137l-4.9973254 -4.766987z" fill-rule="nonzero"></path><path fill="#ffffff" d="m62.817585 62.84646l-15.716534 0l5.2387924 -4.997326l5.4804153 0l0 -5.2278137l4.997326 -4.766987z" fill-rule="nonzero"></path><path stroke="#ffffff" stroke-width="1.0" stroke-linejoin="round" stroke-linecap="butt" d="m62.817585 62.84646l-15.716534 0l5.2387924 -4.997326l5.4804153 0l0 -5.2278137l4.997326 -4.766987z" fill-rule="nonzero"></path></g></svg>

