<?xml version="1.0" standalone="yes"?>

<svg version="1.1" viewBox="0.0 0.0 64.0 64.0" fill="none" stroke="none" stroke-linecap="square" stroke-miterlimit="10" xmlns="http://www.w3.org/2000/svg" xmlns:xlink="http://www.w3.org/1999/xlink"><clipPath id="p.0"><path d="m0 0l64.0 0l0 64.0l-64.0 0l0 -64.0z" clip-rule="nonzero"></path></clipPath><g clip-path="url(#p.0)"><path fill="#000000" fill-opacity="0.0" d="m0 0l64.0 0l0 64.0l-64.0 0z" fill-rule="nonzero"></path><path fill="#ffffff" d="m16.89895 16.14567l-15.716536 0l5.238793 -4.997326l5.4804173 0l0 -5.2278132l4.997326 -4.7669873z" fill-rule="nonzero"></path><path stroke="#ffffff" stroke-width="1.0" stroke-linejoin="round" stroke-linecap="butt" d="m16.89895 16.14567l-15.716536 0l5.238793 -4.997326l5.4804173 0l0 -5.2278132l4.997326 -4.7669873z" fill-rule="nonzero"></path><path fill="#ffffff" d="m47.82546 16.870079l0 -15.716536l4.997326 5.2387924l0 5.4804173l5.2278137 0l4.766987 4.997326z" fill-rule="nonzero"></path><path stroke="#ffffff" stroke-width="1.0" stroke-linejoin="round" stroke-linecap="butt" d="m47.82546 16.870079l0 -15.716536l4.997326 5.2387924l0 5.4804173l5.2278137 0l4.766987 4.997326z" fill-rule="nonzero"></path><path fill="#ffffff" d="m16.89895 47.854332l-15.716536 0l5.238793 4.997326l5.4804173 0l0 5.22781l4.997326 4.7669907z" fill-rule="nonzero"></path><path stroke="#ffffff" stroke-width="1.0" stroke-linejoin="round" stroke-linecap="butt" d="m16.89895 47.854332l-15.716536 0l5.238793 4.997326l5.4804173 0l0 5.22781l4.997326 4.7669907z" fill-rule="nonzero"></path><path fill="#ffffff" d="m47.10105 47.854332l15.716534 0l-5.2387924 4.997326l-5.480419 0l0 5.22781l-4.997322 4.7669907z" fill-rule="nonzero"></path><path stroke="#ffffff" stroke-width="1.0" stroke-linejoin="round" stroke-linecap="butt" d="m47.10105 47.854332l15.716534 0l-5.2387924 4.997326l-5.480419 0l0 5.22781l-4.997322 4.7669907z" fill-rule="nonzero"></path></g></svg>

