<?xml version="1.0" standalone="yes"?>

<svg version="1.1" viewBox="0.0 0.0 64.0 64.0" fill="none" stroke="none" stroke-linecap="square" stroke-miterlimit="10" xmlns="http://www.w3.org/2000/svg" xmlns:xlink="http://www.w3.org/1999/xlink"><clipPath id="p.0"><path d="m0 0l64.0 0l0 64.0l-64.0 0l0 -64.0z" clip-rule="nonzero"></path></clipPath><g clip-path="url(#p.0)"><path fill="#000000" fill-opacity="0.0" d="m0 0l64.0 0l0 64.0l-64.0 0z" fill-rule="nonzero"></path><path fill="#000000" fill-opacity="0.0" d="m57.266403 15.963255l-63.496063 0l0 43.46457l63.496063 0z" fill-rule="nonzero"></path><path fill="#ffffff" d="m18.489092 38.214504q0 2.1875 -1.234375 3.578125q-1.21875 1.390625 -3.468751 1.859375l0 0.125q2.750001 0.34375 4.078126 1.75q1.328125 1.40625 1.328125 3.6875q0 3.265625 -2.265625 5.03125q-2.265626 1.75 -6.437501 1.75q-1.8125 0 -3.3281245 -0.28125q-1.5 -0.265625 -2.921875 -0.953125l0 -2.46875q1.484375 0.734375 3.15625 1.125q1.6874995 0.375 3.1874995 0.375q5.921876 0 5.921876 -4.640625q0 -4.15625 -6.531251 -4.15625l-2.2499995 0l0 -2.234375l2.2812495 0q2.671875 0 4.234375 -1.171875q1.5625 -1.1875 1.5625 -3.28125q0 -1.671875 -1.15625 -2.625q-1.140625 -0.953125 -3.109375 -0.953125q-1.5 0 -2.828125 0.40625q-1.3281245 0.40625 -3.0312495 1.5l-1.3125 -1.75q1.40625 -1.109375 3.234375 -1.734375q1.8437495 -0.640625 3.8749995 -0.640625q3.328125 0 5.171876 1.53125q1.84375 1.515625 1.84375 4.171875zm19.281248 6.015625q0 5.921875 -1.875 8.84375q-1.859375 2.921875 -5.703123 2.921875q-3.6875 0 -5.609375 -2.984375q-1.921875 -3.0 -1.921875 -8.78125q0 -5.96875 1.859375 -8.859375q1.859375 -2.890625 5.671875 -2.890625q3.718748 0 5.640623 3.015625q1.9375 3.015625 1.9375 8.734375zm-12.484373 0q0 4.984375 1.171875 7.265625q1.171875 2.265625 3.734375 2.265625q2.593748 0 3.749998 -2.296875q1.171875 -2.3125 1.171875 -7.234375q0 -4.921875 -1.171875 -7.203125q-1.15625 -2.296875 -3.749998 -2.296875q-2.5625 0 -3.734375 2.265625q-1.171875 2.25 -1.171875 7.234375z" fill-rule="nonzero"></path><path fill="#ffffff" d="m57.4147 44.136482l0 -23.244093l0 0c0 -9.984613 -8.094128 -18.078741 -18.078743 -18.078741l-4.692913 0l0 0c-4.794779 0 -9.393177 1.9047189 -12.783598 5.2951403c-3.3904228 3.3904219 -5.295141 7.98882 -5.295141 12.783601l0 2.582676l-5.165354 0l10.330708 10.330709l10.330709 -10.330709l-5.165354 0l0 -2.582676l0 0c0 -4.2791214 3.4689121 -7.7480326 7.7480297 -7.7480326l4.692913 0l0 0c4.2791214 0 7.7480316 3.4689112 7.7480316 7.7480326l0 23.244093z" fill-rule="nonzero"></path><path stroke="#ffffff" stroke-width="1.0" stroke-linejoin="round" stroke-linecap="butt" d="m57.4147 44.136482l0 -23.244093l0 0c0 -9.984613 -8.094128 -18.078741 -18.078743 -18.078741l-4.692913 0l0 0c-4.794779 0 -9.393177 1.9047189 -12.783598 5.2951403c-3.3904228 3.3904219 -5.295141 7.98882 -5.295141 12.783601l0 2.582676l-5.165354 0l10.330708 10.330709l10.330709 -10.330709l-5.165354 0l0 -2.582676l0 0c0 -4.2791214 3.4689121 -7.7480326 7.7480297 -7.7480326l4.692913 0l0 0c4.2791214 0 7.7480316 3.4689112 7.7480316 7.7480326l0 23.244093z" fill-rule="nonzero"></path><path fill="#ffffff" d="m57.4147 41.874016l-10.317585 0l0 14.556431l10.317585 0z" fill-rule="nonzero"></path><path stroke="#ffffff" stroke-width="1.0" stroke-linejoin="round" stroke-linecap="butt" d="m57.4147 41.874016l-10.317585 0l0 14.556431l10.317585 0z" fill-rule="nonzero"></path></g></svg>

