<?xml version="1.0" encoding="UTF-8" standalone="no"?>
<!-- Created with Inkscape (http://www.inkscape.org/) -->

<svg
   xmlns:dc="http://purl.org/dc/elements/1.1/"
   xmlns:cc="http://creativecommons.org/ns#"
   xmlns:rdf="http://www.w3.org/1999/02/22-rdf-syntax-ns#"
   xmlns:svg="http://www.w3.org/2000/svg"
   xmlns="http://www.w3.org/2000/svg"
   xmlns:sodipodi="http://sodipodi.sourceforge.net/DTD/sodipodi-0.dtd"
   xmlns:inkscape="http://www.inkscape.org/namespaces/inkscape"
   width="512.09448"
   height="512.36218"
   viewBox="0 0 512.09449 512.36219"
   id="svg4235"
   version="1.1"
   inkscape:version="0.91 r13725"
   sodipodi:docname="instagram.svg"
   inkscape:export-filename="C:\Users\ilmovnino\Dropbox\Public\site\Assets\twitter-logo.png"
   inkscape:export-xdpi="90"
   inkscape:export-ydpi="90">
  <defs
     id="defs4237" />
  <sodipodi:namedview
     id="base"
     pagecolor="#ffffff"
     bordercolor="#666666"
     borderopacity="1.0"
     inkscape:pageopacity="0.0"
     inkscape:pageshadow="2"
     inkscape:zoom="0.49497475"
     inkscape:cx="-521.25464"
     inkscape:cy="520"
     inkscape:document-units="px"
     inkscape:current-layer="layer8"
     showgrid="false"
     units="px"
     inkscape:showpageshadow="false"
     inkscape:window-width="1920"
     inkscape:window-height="1017"
     inkscape:window-x="-8"
     inkscape:window-y="-8"
     inkscape:window-maximized="1" />
  <metadata
     id="metadata4240">
    <rdf:RDF>
      <cc:Work
         rdf:about="">
        <dc:format>image/svg+xml</dc:format>
        <dc:type
           rdf:resource="http://purl.org/dc/dcmitype/StillImage" />
        <dc:title />
      </cc:Work>
    </rdf:RDF>
  </metadata>
  <g
     inkscape:groupmode="layer"
     id="layer8"
     inkscape:label="Livello 3"
     style="display:inline">
    <path
       style="display:inline;fill:#ffffff;opacity:1"
       d="M 111.05845,457.82043 C 84.320991,450.75383 63.705641,431.60581 54.182177,404.99242 l -3.123732,-8.72929 -0.277673,-100.25 -0.277673,-100.25 59.027681,0 c 32.46522,0 59.02767,0.26803 59.02767,0.59563 0,0.3276 -0.92437,1.89378 -2.05415,3.48041 -1.12978,1.58663 -4.02424,7.0561 -6.43214,12.15437 -13.8503,29.32542 -13.32424,61.56538 1.4899,91.31027 14.23028,28.57257 40.98578,48.93597 72.82115,55.42361 54.12772,11.03053 107.45749,-22.55079 121.8985,-76.75848 2.20051,-8.26011 2.59988,-11.94008 2.68119,-24.70581 0.13597,-21.34622 -3.59236,-35.88037 -13.78806,-53.75 l -4.42185,-7.75 59.4304,0 59.43041,0 -0.27768,100.25 -0.27767,100.25 -2.80558,8 c -4.61268,13.15286 -10.19842,22.004 -20.19442,32 -9.996,9.996 -18.84714,15.58174 -32,20.19442 l -8,2.80558 -139,0.20368 c -132.42282,0.19405 -139.33122,0.11615 -146,-1.64638 z M 239.63364,335.67587 c -30.24519,-5.93399 -55.25754,-29.47015 -63.13909,-59.41274 -2.93458,-11.14869 -2.93372,-28.85751 0.002,-40 7.96446,-30.22952 32.94581,-53.97715 62.49561,-59.40923 8.61348,-1.5834 25.53908,-1.33926 33.86893,0.48853 9.42909,2.06899 25.61349,9.99614 33.38855,16.35378 11.83721,9.67924 22.84187,26.77137 26.7626,41.56692 2.25121,8.49534 3.03062,24.5192 1.62831,33.47655 -5.15118,32.9035 -30.70079,59.69989 -63.35283,66.44435 -8.15561,1.68459 -24.29638,1.93538 -31.65403,0.49184 z m 34.92481,-23.45651 c 23.44239,-8.51105 38.39189,-28.44095 39.75024,-52.99298 1.87897,-33.96196 -25.15626,-62.46325 -59.25024,-62.46325 -15.82577,0 -30.20178,5.85761 -41.34359,16.84575 -34.37789,33.90373 -17.30527,90.84254 30.34359,101.19873 7.55407,1.64184 22.29415,0.39098 30.5,-2.58825 z M 50.752361,147.51313 l 0.331076,-35.25 2.793086,-8 C 58.532797,90.926564 64.023997,82.297579 74.558445,71.763131 l 9.5,-9.5 0.260402,44.249999 0.260402,44.25 7.989598,0 7.989603,0 0,-48.406 0,-48.405995 4.67814,-1.594002 c 2.57298,-0.876701 5.26877,-1.594002 5.99066,-1.594002 1.06231,0 1.36197,9.484399 1.57186,49.749999 l 0.25934,49.75 8,0 8,0 0.25916,-50.749999 0.25917,-50.75 5.48167,0 5.48167,0 0.25917,50.75 0.25916,50.749999 8,0 8,0 0.25918,-50.769739 0.25917,-50.769748 119.24083,0.269744 119.24082,0.269744 8,2.805583 c 13.15286,4.612679 22.004,10.198419 32,20.194417 10.0061,10.006098 15.59943,18.874756 20.18192,31.999999 l 2.79309,8 0.33107,35.25 0.33108,35.25 -65.18492,0 -65.18493,0 -5.82327,-5.39133 c -12.05953,-11.16499 -30.104,-20.1481 -47.82542,-23.809 -13.98805,-2.88967 -35.87158,-2.16727 -48.61862,1.60494 -16.07024,4.75563 -28.35529,11.40551 -41.19831,22.30059 l -6.24147,5.2948 -64.59869,0 -64.598694,0 0.331075,-35.25 z m 368.038519,1.48239 3.26757,-3.26761 0.29571,-26.94366 c 0.33813,-30.809201 0.14027,-31.78509 -7.11203,-35.07774 -3.7215,-1.689617 -6.72455,-1.899455 -27.18368,-1.899455 -20.45913,0 -23.46218,0.209838 -27.18368,1.899455 -7.09701,3.222146 -7.31632,4.254229 -7.31632,34.43023 l 0,26.47294 2.66844,3.17126 c 1.46764,1.74419 3.60514,3.56103 4.75,4.03741 1.14486,0.47638 13.88615,0.77134 28.31399,0.65547 l 26.23243,-0.21069 3.26757,-3.26761 z"
       id="path4809"
       inkscape:connector-curvature="0" />
  </g>
</svg>
