<?xml version="1.0" encoding="UTF-8" standalone="no"?>
<!-- Created with Inkscape (http://www.inkscape.org/) -->

<svg
   xmlns:dc="http://purl.org/dc/elements/1.1/"
   xmlns:cc="http://creativecommons.org/ns#"
   xmlns:rdf="http://www.w3.org/1999/02/22-rdf-syntax-ns#"
   xmlns:svg="http://www.w3.org/2000/svg"
   xmlns="http://www.w3.org/2000/svg"
   xmlns:sodipodi="http://sodipodi.sourceforge.net/DTD/sodipodi-0.dtd"
   xmlns:inkscape="http://www.inkscape.org/namespaces/inkscape"
   width="512.09448"
   height="512.36218"
   viewBox="0 0 512.09449 512.36219"
   id="svg4235"
   version="1.1"
   inkscape:version="0.91 r13725"
   sodipodi:docname="search.svg"
   inkscape:export-filename="C:\Users\ilmovnino\Dropbox\Public\site\Assets\mail-logo.png"
   inkscape:export-xdpi="90"
   inkscape:export-ydpi="90">
  <defs
     id="defs4237" />
  <sodipodi:namedview
     id="base"
     pagecolor="#ffffff"
     bordercolor="#666666"
     borderopacity="1.0"
     inkscape:pageopacity="0.0"
     inkscape:pageshadow="2"
     inkscape:zoom="0.49497475"
     inkscape:cx="-521.25464"
     inkscape:cy="520"
     inkscape:document-units="px"
     inkscape:current-layer="layer10"
     showgrid="false"
     units="px"
     inkscape:showpageshadow="false"
     inkscape:window-width="1920"
     inkscape:window-height="1017"
     inkscape:window-x="-8"
     inkscape:window-y="-8"
     inkscape:window-maximized="1" />
  <metadata
     id="metadata4240">
    <rdf:RDF>
      <cc:Work
         rdf:about="">
        <dc:format>image/svg+xml</dc:format>
        <dc:type
           rdf:resource="http://purl.org/dc/dcmitype/StillImage" />
        <dc:title />
      </cc:Work>
    </rdf:RDF>
  </metadata>
  <g
     inkscape:groupmode="layer"
     id="layer10"
     inkscape:label="Livello 5"
     style="display:inline">
    <path
       style="fill:#ffffff"
       d="m 352.65449,409.37949 -54.41737,-54.42424 -8.83209,4.43574 C 254.87554,376.73274 217.59951,381.66557 181.00148,373.7363 121.18267,360.77607 74.004601,315.87786 58.115305,256.78855 33.350585,164.69319 93.723659,70.728511 187.99565,54.642716 c 10.40749,-1.775849 14.85658,-1.989922 32.0831,-1.543717 21.95626,0.568715 31.94534,2.313807 50,8.734998 56.46065,20.080393 98.1414,71.449943 106.02336,130.668773 4.71697,35.43965 -2.6101,74.03806 -19.41962,102.30097 l -3.86592,6.5 54.62585,54.74817 54.62584,54.74816 -26.48768,26.50184 c -14.56822,14.576 -26.94241,26.50183 -27.49819,26.50183 -0.55579,0 -25.49834,-24.49091 -55.4279,-54.42425 z M 231.19776,315.27767 c 67.84091,-11.6575 105.08303,-83.42004 75.3316,-145.15789 -12.65853,-26.26802 -37.26991,-46.19328 -66.7448,-54.03629 -8.38317,-2.23069 -11.7499,-2.58264 -24.70581,-2.58264 -13.04595,0 -16.3027,0.34533 -25,2.65081 -36.48175,9.67062 -64.24271,37.81486 -74.12861,75.15208 -2.8434,10.73898 -2.66416,37.11401 0.32619,48 6.48058,23.5917 19.15754,42.70649 37.47889,56.51204 22.58151,17.01568 50.64127,24.06731 77.44254,19.46189 z"
       id="path4839"
       inkscape:connector-curvature="0" />
  </g>
</svg>
