<?xml version="1.0" encoding="UTF-8" standalone="no"?>
<!-- Created with Inkscape (http://www.inkscape.org/) -->

<svg
   xmlns:dc="http://purl.org/dc/elements/1.1/"
   xmlns:cc="http://creativecommons.org/ns#"
   xmlns:rdf="http://www.w3.org/1999/02/22-rdf-syntax-ns#"
   xmlns:svg="http://www.w3.org/2000/svg"
   xmlns="http://www.w3.org/2000/svg"
   xmlns:sodipodi="http://sodipodi.sourceforge.net/DTD/sodipodi-0.dtd"
   xmlns:inkscape="http://www.inkscape.org/namespaces/inkscape"
   width="512.09448"
   height="512.36218"
   viewBox="0 0 512.09449 512.36219"
   id="svg4235"
   version="1.1"
   inkscape:version="0.91 r13725"
   sodipodi:docname="twitter.svg">
  <defs
     id="defs4237" />
  <sodipodi:namedview
     id="base"
     pagecolor="#ffffff"
     bordercolor="#666666"
     borderopacity="1.0"
     inkscape:pageopacity="0.0"
     inkscape:pageshadow="2"
     inkscape:zoom="0.49497475"
     inkscape:cx="-488.92976"
     inkscape:cy="520"
     inkscape:document-units="px"
     inkscape:current-layer="layer7"
     showgrid="false"
     units="px"
     inkscape:showpageshadow="false"
     inkscape:window-width="1920"
     inkscape:window-height="1017"
     inkscape:window-x="-8"
     inkscape:window-y="-8"
     inkscape:window-maximized="1" />
  <metadata
     id="metadata4240">
    <rdf:RDF>
      <cc:Work
         rdf:about="">
        <dc:format>image/svg+xml</dc:format>
        <dc:type
           rdf:resource="http://purl.org/dc/dcmitype/StillImage" />
        <dc:title />
      </cc:Work>
    </rdf:RDF>
  </metadata>
  <g
     inkscape:groupmode="layer"
     id="layer7"
     inkscape:label="Livello 2"
     style="display:inline">
    <path
       transform="translate(0,-539.99996)"
       style="opacity:1;fill:#ffffff"
       d="m 157.14287,964.98349 c -23.17126,-2.35182 -51.6948,-9.91268 -72.952597,-19.33788 -8.195483,-3.63368 -25.618445,-12.88025 -30.701915,-16.29386 -0.63498,-0.4264 7.69002,-0.78354 18.5,-0.79366 16.418932,-0.0154 21.520307,-0.39337 30.988302,-2.29623 23.11747,-4.6461 43.67007,-13.02306 62.41503,-25.43951 l 10.93901,-7.24587 -8.84392,-1.2588 c -20.04706,-2.85339 -35.79696,-10.78391 -49.75965,-25.05538 -7.25016,-7.4105 -10.66629,-12.33521 -15.69976,-22.63292 -4.322865,-8.84393 -4.7644,-10.94774 -2.134504,-10.17044 4.636514,1.37038 16.610484,1.68624 24.250004,0.63969 9.56023,-1.30967 11.80934,-2.46013 6.68781,-3.42094 -4.78605,-0.89787 -14.44741,-4.9233 -20.8403,-8.68316 -20.501185,-12.05741 -35.225096,-32.45828 -39.950477,-55.35379 -1.619568,-7.84717 -2.534117,-18.56426 -1.58419,-18.56426 0.172065,0 2.536747,1.07285 5.254848,2.3841 7.298753,3.52103 17.583016,6.47508 25.205002,7.23987 l 6.727307,0.67501 -5.04945,-4.01421 c -10.785622,-8.57437 -20.494001,-21.66383 -25.856834,-34.86184 -6.827155,-16.80174 -7.495461,-40.10828 -1.65016,-57.54779 1.774311,-5.29367 4.096403,-11.05609 5.160205,-12.80537 l 1.934185,-3.18051 13.111303,13.57682 c 7.211211,7.46725 17.215181,16.87651 22.231031,20.90947 28.77912,23.13966 64.13655,40.17793 99.70283,48.04545 11.14815,2.46605 37.73963,6.0896 38.57299,5.25623 0.22241,-0.2224 -0.11502,-3.72826 -0.74984,-7.7908 -1.34078,-8.58037 -0.62138,-22.27717 1.67209,-31.83537 2.10849,-8.78726 10.30082,-25.11049 16.46024,-32.79707 21.90162,-27.33187 59.81713,-37.99034 93.6907,-26.33749 10.13983,3.48821 20.29889,9.42867 27.71391,16.20559 5.46914,4.99848 5.75171,5.12304 10.22944,4.5093 7.68134,-1.05284 27.83564,-8.28638 38.89465,-13.95959 5.73799,-2.94356 10.43271,-4.9444 10.43271,-4.44632 0,1.80664 -6.88093,15.74191 -10.09735,20.44917 -4.70843,6.89083 -13.43307,15.90726 -20.38288,21.06456 l -5.98024,4.4378 3.98024,-0.6737 c 9.79001,-1.65709 25.24554,-5.75151 33.70503,-8.92902 5.07086,-1.90469 9.36505,-3.31777 9.54264,-3.14018 0.1776,0.1776 -2.34635,3.86507 -5.60878,8.1944 -7.33854,9.73842 -18.32238,21.12382 -28.03282,29.05767 l -7.37415,6.02501 -0.36205,14.39441 c -0.9319,37.05051 -9.07402,70.32856 -25.29743,103.3944 -21.13286,43.07202 -51.25538,76.48385 -90.09221,99.93005 -26.01733,15.70693 -54.6324,25.88497 -86.19143,30.65726 -15.56122,2.35313 -48.22816,3.29956 -62.80857,1.8197 z"
       id="path4794"
       inkscape:connector-curvature="0" />
  </g>
</svg>
