<?xml version="1.0" encoding="iso-8859-1"?>
<!-- Generator: Adobe Illustrator 16.0.0, SVG Export Plug-In . SVG Version: 6.00 Build 0)  -->
<!DOCTYPE svg PUBLIC "-//W3C//DTD SVG 1.1//EN" "http://www.w3.org/Graphics/SVG/1.1/DTD/svg11.dtd">
<svg version="1.1" id="Capa_1" xmlns="http://www.w3.org/2000/svg" xmlns:xlink="http://www.w3.org/1999/xlink" x="0px" y="0px"
	 width="468.072px" height="468.072px" viewBox="0 0 468.072 468.072" style="enable-background:new 0 0 468.072 468.072;"
	 xml:space="preserve">
<g>
	<g>
		<path d="M36.611,468.072c-4,0-7.864-1.572-10.72-4.438c-3.26-3.258-4.859-7.817-4.357-12.409L42.977,258.25
			c0.383-3.439,1.911-6.632,4.352-9.063L283.196,13.305c17.712-17.74,46.619-17.74,64.331,0l85.818,85.792
			c17.711,17.711,17.711,46.557,0,64.326L261.774,334.953c-2.843,2.842-6.697,4.443-10.725,4.443h-85.765
			c-8.38,0-15.161-6.781-15.161-15.164v-85.762c0-4.03,1.601-7.883,4.443-10.723l128.629-128.65c5.923-5.922,15.522-5.922,21.445,0
			c5.923,5.927,5.923,15.521,0,21.443L180.451,244.748v64.321h64.322l167.133-167.086c5.922-5.925,5.922-15.548,0-21.443
			l-85.823-85.792c-5.923-5.895-15.518-5.925-21.44,0L72.534,266.865L53.772,435.734l168.881-18.753l189.252-189.233
			c5.922-5.922,15.518-5.922,21.44,0c5.922,5.922,5.922,15.516,0,21.438L240.334,442.188c-2.432,2.432-5.631,3.972-9.047,4.359
			L38.284,467.983C37.72,468.04,37.16,468.072,36.611,468.072z"/>
	</g>
</g>
<g>
</g>
<g>
</g>
<g>
</g>
<g>
</g>
<g>
</g>
<g>
</g>
<g>
</g>
<g>
</g>
<g>
</g>
<g>
</g>
<g>
</g>
<g>
</g>
<g>
</g>
<g>
</g>
<g>
</g>
</svg>
