<?xml version="1.0" encoding="iso-8859-1"?>
<!-- Generator: Adobe Illustrator 16.0.0, SVG Export Plug-In . SVG Version: 6.00 Build 0)  -->
<!DOCTYPE svg PUBLIC "-//W3C//DTD SVG 1.1//EN" "http://www.w3.org/Graphics/SVG/1.1/DTD/svg11.dtd">
<svg version="1.1" id="Capa_1" xmlns="http://www.w3.org/2000/svg" xmlns:xlink="http://www.w3.org/1999/xlink" x="0px" y="0px"
	 width="550.807px" height="550.807px" viewBox="0 0 550.807 550.807" style="enable-background:new 0 0 550.807 550.807;"
	 xml:space="preserve">
<g>
	<g>
		<path d="M376.009,275.4c0,55.526-45.172,100.706-100.698,100.706c-25.949,0-49.554-9.951-67.43-26.127L103.186,490.316
			c47.155,37.814,106.978,60.49,172.125,60.49c152.1,0,275.401-123.301,275.401-275.4c0-8.801-0.459-17.491-1.268-26.083
			l-174.756,10.594C375.478,264.978,376.009,270.125,376.009,275.4z"/>
		<path d="M371.872,247.034l169.604-42.436c-3.482-13.127-7.906-25.863-13.201-38.14l-159.547,71.537
			C369.913,240.944,370.966,243.956,371.872,247.034z"/>
		<path d="M275.311,363.865c48.776,0,88.459-39.684,88.459-88.465c0-48.783-39.684-88.458-88.459-88.458
			c-48.776,0-88.458,39.682-88.458,88.458C186.853,324.176,226.535,363.865,275.311,363.865z M275.311,229.561
			c25.319,0,45.844,20.526,45.844,45.845c0,25.318-20.525,45.838-45.844,45.838c-25.318,0-45.845-20.525-45.845-45.844
			C229.466,250.082,249.993,229.561,275.311,229.561z"/>
		<path d="M2.585,313.43c7.681,55.576,31.91,105.857,67.602,145.686L198.67,340.559c-12.571-14.76-20.943-33.164-23.311-53.402
			L2.585,313.43z"/>
		<path d="M275.311,174.702c37.614,0,70.428,20.765,87.717,51.401l143.846-99.701C457.853,50.386,372.491,0,275.311,0
			C125.646,0,3.95,119.407,0.095,268.147l174.585,5.894C175.42,219.151,220.243,174.702,275.311,174.702z"/>
	</g>
</g>
<g>
</g>
<g>
</g>
<g>
</g>
<g>
</g>
<g>
</g>
<g>
</g>
<g>
</g>
<g>
</g>
<g>
</g>
<g>
</g>
<g>
</g>
<g>
</g>
<g>
</g>
<g>
</g>
<g>
</g>
</svg>
