<?xml version="1.0" encoding="iso-8859-1"?>
<!-- Generator: Adobe Illustrator 16.0.0, SVG Export Plug-In . SVG Version: 6.00 Build 0)  -->
<!DOCTYPE svg PUBLIC "-//W3C//DTD SVG 1.1//EN" "http://www.w3.org/Graphics/SVG/1.1/DTD/svg11.dtd">
<svg version="1.1" id="Capa_1" xmlns="http://www.w3.org/2000/svg" xmlns:xlink="http://www.w3.org/1999/xlink" x="0px" y="0px"
	 width="45px" height="45px" viewBox="0 0 45 45" style="enable-background:new 0 0 45 45;" xml:space="preserve">
<g>
	<g>
		<path d="M23.441,11.877l-4.71-8.16C18.58,3.454,18.3,3.306,17.985,3.312C9.688,3.746,0,5.609,0,9.43v26.024
			c0,4.095,11.318,6.233,22.5,6.233c11.18,0,22.5-2.141,22.5-6.233V18.104C45,14.147,34.232,11.994,23.441,11.877z M1.626,9.43
			c0-1.5,5.539-3.857,15.947-4.466l5.237,9.072c-0.104,0-0.206,0.003-0.311,0.003C9.757,14.039,1.626,11.31,1.626,9.43z
			 M6.945,39.191c0,0.042-0.019,0.08-0.052,0.104c-0.024,0.02-0.053,0.029-0.083,0.029c-0.012,0-0.023-0.002-0.035-0.005
			c-1.303-0.344-2.416-0.722-3.307-1.12c-0.048-0.021-0.08-0.07-0.08-0.126v-4.696c0-0.016,0.001-0.026,0.005-0.038
			c0.004-0.014,0.342-1.137,1.774-1.137c1.431,0,1.77,1.123,1.773,1.139c0.003,0.01,0.005,0.021,0.005,0.036V39.191z M6.945,30.515
			c0,0.043-0.019,0.081-0.052,0.106c-0.024,0.02-0.054,0.027-0.083,0.027c-0.012,0-0.023-0.002-0.035-0.004
			c-1.303-0.342-2.416-0.719-3.307-1.119c-0.048-0.022-0.08-0.072-0.08-0.125v-4.699c0-0.013,0.001-0.022,0.005-0.038
			c0.004-0.011,0.342-1.136,1.774-1.136c1.431,0,1.77,1.125,1.773,1.139c0.003,0.013,0.005,0.022,0.005,0.035V30.515z M6.945,21.841
			c0,0.042-0.019,0.082-0.052,0.107c-0.024,0.019-0.053,0.028-0.083,0.028c-0.012,0-0.023-0.001-0.035-0.004
			c-1.303-0.342-2.416-0.719-3.307-1.121c-0.048-0.021-0.08-0.069-0.08-0.124v-4.7c0-0.013,0.001-0.026,0.005-0.037
			c0.004-0.012,0.342-1.136,1.774-1.136c1.431,0,1.77,1.125,1.773,1.136c0.003,0.011,0.005,0.024,0.005,0.037V21.841z
			 M12.723,40.271c0,0.041-0.018,0.077-0.046,0.104c-0.024,0.021-0.057,0.033-0.089,0.033c-0.005,0-0.012,0-0.018,0
			c-1.136-0.148-2.244-0.324-3.293-0.524c-0.064-0.015-0.11-0.068-0.11-0.134v-5.289c0-0.013,0.001-0.024,0.005-0.038
			c0.004-0.011,0.34-1.137,1.772-1.137c1.432,0,1.771,1.126,1.773,1.139c0.003,0.012,0.005,0.023,0.005,0.036L12.723,40.271
			L12.723,40.271z M12.723,31.599c0,0.04-0.018,0.076-0.046,0.102c-0.024,0.023-0.057,0.033-0.089,0.033c-0.005,0-0.012,0-0.018,0
			c-1.136-0.146-2.244-0.322-3.293-0.523c-0.064-0.013-0.11-0.066-0.11-0.134v-5.288c0-0.016,0.001-0.025,0.005-0.037
			c0.004-0.011,0.34-1.137,1.772-1.137c1.432,0,1.771,1.126,1.773,1.139c0.003,0.01,0.005,0.021,0.005,0.035L12.723,31.599
			L12.723,31.599z M12.723,22.923c0,0.04-0.018,0.077-0.046,0.102c-0.024,0.022-0.057,0.033-0.089,0.033
			c-0.005,0-0.012,0-0.018-0.001c-1.137-0.146-2.245-0.322-3.293-0.525c-0.064-0.012-0.11-0.068-0.11-0.133v-5.288
			c0-0.013,0.001-0.024,0.005-0.037c0.004-0.011,0.34-1.135,1.772-1.135c1.432,0,1.771,1.125,1.773,1.136
			c0.003,0.012,0.005,0.024,0.005,0.037L12.723,22.923L12.723,22.923z M18.501,40.775c0,0.037-0.016,0.074-0.042,0.101
			c-0.025,0.021-0.059,0.035-0.093,0.035c-0.002,0-0.004,0-0.006,0c-1.063-0.051-2.14-0.127-3.292-0.231
			c-0.07-0.008-0.124-0.063-0.124-0.134v-4.998c0-0.014,0.001-0.026,0.005-0.038c0.004-0.01,0.341-1.136,1.771-1.136
			c1.434,0,1.773,1.126,1.776,1.138c0.003,0.01,0.005,0.022,0.005,0.036V40.775L18.501,40.775z M18.501,32.099
			c0,0.039-0.016,0.075-0.042,0.103c-0.025,0.021-0.059,0.035-0.093,0.035c-0.002,0-0.004,0-0.006,0
			c-1.063-0.053-2.14-0.127-3.292-0.232c-0.07-0.007-0.124-0.063-0.124-0.134v-5c0-0.013,0.001-0.023,0.005-0.035
			c0.004-0.015,0.341-1.137,1.771-1.137c1.434,0,1.773,1.122,1.776,1.139c0.003,0.01,0.005,0.021,0.005,0.033V32.099L18.501,32.099z
			 M18.501,23.425c0,0.038-0.016,0.072-0.042,0.098c-0.025,0.025-0.059,0.038-0.093,0.038c-0.002,0-0.004,0-0.006,0
			c-1.083-0.052-2.159-0.128-3.292-0.23c-0.07-0.007-0.124-0.064-0.124-0.136v-4.999c0-0.012,0.001-0.025,0.005-0.037
			c0.004-0.011,0.341-1.135,1.771-1.135c1.434,0,1.773,1.125,1.776,1.136c0.003,0.012,0.005,0.025,0.005,0.037V23.425L18.501,23.425
			z M24.277,40.855c0,0.073-0.06,0.133-0.134,0.137c-0.545,0.011-1.09,0.021-1.646,0.021c-0.556,0-1.101-0.011-1.646-0.021
			c-0.073-0.004-0.133-0.062-0.133-0.137v-5.31c0-0.014,0.001-0.026,0.005-0.038c0.003-0.011,0.342-1.137,1.773-1.137
			c1.434,0,1.771,1.126,1.775,1.139c0.002,0.01,0.004,0.022,0.004,0.036L24.277,40.855L24.277,40.855z M24.277,32.18
			c0,0.075-0.06,0.134-0.134,0.136c-0.545,0.014-1.09,0.022-1.646,0.022c-0.556,0-1.101-0.011-1.646-0.022
			c-0.073-0.002-0.133-0.061-0.133-0.136V26.87c0-0.013,0.001-0.023,0.005-0.035c0.003-0.015,0.342-1.137,1.773-1.137
			c1.434,0,1.771,1.122,1.775,1.139c0.002,0.01,0.004,0.021,0.004,0.033L24.277,32.18L24.277,32.18z M24.277,23.506
			c0,0.073-0.06,0.134-0.134,0.136c-0.545,0.01-1.09,0.021-1.646,0.021c-0.556,0-1.101-0.011-1.646-0.021
			c-0.073-0.002-0.133-0.062-0.133-0.136v-5.312c0-0.012,0.001-0.025,0.005-0.037c0.003-0.011,0.342-1.135,1.773-1.135
			c1.434,0,1.771,1.125,1.775,1.135c0.002,0.012,0.004,0.026,0.004,0.038L24.277,23.506L24.277,23.506z M30.055,40.544
			c0,0.067-0.053,0.126-0.123,0.134c-1.159,0.104-2.235,0.183-3.291,0.231c-0.002,0-0.004,0-0.007,0
			c-0.036,0-0.066-0.016-0.093-0.038c-0.027-0.025-0.042-0.062-0.042-0.098v-5.229c0-0.014,0.002-0.026,0.004-0.038
			c0.004-0.011,0.341-1.137,1.772-1.137c1.431,0,1.771,1.126,1.773,1.139c0.002,0.01,0.005,0.022,0.005,0.036L30.055,40.544
			L30.055,40.544z M30.055,31.87c0,0.069-0.053,0.127-0.123,0.134c-1.159,0.105-2.235,0.182-3.291,0.232c-0.002,0-0.004,0-0.007,0
			c-0.036,0-0.066-0.016-0.093-0.037c-0.027-0.025-0.042-0.062-0.042-0.101V26.87c0-0.013,0.002-0.023,0.004-0.035
			c0.004-0.015,0.341-1.137,1.772-1.137c1.431,0,1.771,1.122,1.773,1.139c0.002,0.01,0.005,0.021,0.005,0.033L30.055,31.87
			L30.055,31.87z M35.833,39.75c0,0.063-0.047,0.12-0.108,0.135c-1.047,0.2-2.155,0.376-3.295,0.521
			c-0.005,0.004-0.011,0.004-0.018,0.004c-0.032,0-0.064-0.015-0.089-0.034c-0.03-0.025-0.05-0.063-0.05-0.104V34.46
			c0-0.013,0.002-0.024,0.009-0.038c0.003-0.011,0.34-1.137,1.771-1.137c1.433,0,1.771,1.126,1.771,1.139
			c0.004,0.012,0.006,0.023,0.006,0.036L35.833,39.75L35.833,39.75z M35.833,31.076c0,0.063-0.047,0.12-0.108,0.134
			c-1.047,0.201-2.155,0.378-3.295,0.521c-0.005,0.002-0.011,0.002-0.018,0.002c-0.032,0-0.064-0.012-0.089-0.033
			c-0.03-0.023-0.05-0.062-0.05-0.102v-5.812c0-0.016,0.002-0.025,0.009-0.038c0.003-0.011,0.34-1.137,1.771-1.137
			c1.433,0,1.771,1.126,1.771,1.14c0.004,0.01,0.006,0.021,0.006,0.035L35.833,31.076L35.833,31.076z M41.611,38.076
			c0,0.056-0.032,0.104-0.08,0.126c-0.894,0.398-2.006,0.776-3.308,1.121c-0.011,0.002-0.022,0.004-0.032,0.004
			c-0.031,0-0.061-0.012-0.084-0.029c-0.034-0.024-0.054-0.063-0.054-0.104V33.38c0-0.015,0.002-0.026,0.004-0.038
			c0.004-0.014,0.343-1.136,1.771-1.136c1.437,0,1.771,1.122,1.776,1.138c0.004,0.01,0.006,0.021,0.006,0.036V38.076z
			 M41.611,29.402c0,0.053-0.032,0.103-0.08,0.125c-0.894,0.4-2.006,0.777-3.308,1.119c-0.011,0.002-0.022,0.004-0.032,0.004
			c-0.031,0-0.061-0.01-0.084-0.027c-0.034-0.025-0.054-0.063-0.054-0.106v-5.813c0-0.013,0.002-0.022,0.004-0.038
			c0.004-0.011,0.343-1.136,1.771-1.136c1.437,0,1.771,1.125,1.776,1.139c0.004,0.013,0.006,0.022,0.006,0.035V29.402z
			 M29.529,22.419l-4.615-7.99l-0.523-0.912c11.802,0.251,18.983,2.782,18.983,4.588C43.374,19.417,39.072,21.597,29.529,22.419z"/>
	</g>
</g>
<g>
</g>
<g>
</g>
<g>
</g>
<g>
</g>
<g>
</g>
<g>
</g>
<g>
</g>
<g>
</g>
<g>
</g>
<g>
</g>
<g>
</g>
<g>
</g>
<g>
</g>
<g>
</g>
<g>
</g>
</svg>
