<?xml version="1.0" encoding="UTF-8" standalone="no"?>
<!-- Created with Inkscape (http://www.inkscape.org/) -->

<svg
   xmlns:dc="http://purl.org/dc/elements/1.1/"
   xmlns:cc="http://creativecommons.org/ns#"
   xmlns:rdf="http://www.w3.org/1999/02/22-rdf-syntax-ns#"
   xmlns:svg="http://www.w3.org/2000/svg"
   xmlns="http://www.w3.org/2000/svg"
   xmlns:sodipodi="http://sodipodi.sourceforge.net/DTD/sodipodi-0.dtd"
   xmlns:inkscape="http://www.inkscape.org/namespaces/inkscape"
   width="512.09448"
   height="512.36218"
   viewBox="0 0 512.09449 512.36219"
   id="svg4235"
   version="1.1"
   inkscape:version="0.91 r13725"
   sodipodi:docname="mail.svg"
   inkscape:export-filename="C:\Users\ilmovnino\Dropbox\Public\site\Assets\instagram-logo.png"
   inkscape:export-xdpi="90"
   inkscape:export-ydpi="90">
  <defs
     id="defs4237" />
  <sodipodi:namedview
     id="base"
     pagecolor="#ffffff"
     bordercolor="#666666"
     borderopacity="1.0"
     inkscape:pageopacity="0.0"
     inkscape:pageshadow="2"
     inkscape:zoom="0.49497475"
     inkscape:cx="-521.25464"
     inkscape:cy="520"
     inkscape:document-units="px"
     inkscape:current-layer="layer9"
     showgrid="false"
     units="px"
     inkscape:showpageshadow="false"
     inkscape:window-width="1920"
     inkscape:window-height="1017"
     inkscape:window-x="-8"
     inkscape:window-y="-8"
     inkscape:window-maximized="1" />
  <metadata
     id="metadata4240">
    <rdf:RDF>
      <cc:Work
         rdf:about="">
        <dc:format>image/svg+xml</dc:format>
        <dc:type
           rdf:resource="http://purl.org/dc/dcmitype/StillImage" />
        <dc:title />
      </cc:Work>
    </rdf:RDF>
  </metadata>
  <g
     inkscape:groupmode="layer"
     id="layer9"
     inkscape:label="Livello 4">
    <path
       style="display:inline;fill:#ffffff;opacity:1"
       d="m 36.558441,262.69455 0,-123.0889 2.780507,2.33965 c 1.529279,1.2868 50.404671,43.0643 108.611982,92.83889 58.20731,49.77459 106.39967,90.44615 107.09413,90.38125 0.69447,-0.0649 49.36069,-40.78989 108.14717,-90.5 58.78648,-49.7101 107.66789,-90.9996 108.62536,-91.75444 1.65246,-1.30276 1.74085,4.82846 1.74085,120.75 l 0,122.12244 -218.5,0 -218.499999,0 0,-123.08889 z M 148.14883,201.97614 42.239216,111.28344 149.47873,111.02893 c 58.98174,-0.13999 155.21662,-0.13999 213.85531,0 l 106.61578,0.25451 -107.20064,90.75 c -58.96036,49.9125 -107.53592,90.72421 -107.9457,90.6927 -0.40977,-0.0315 -48.40437,-40.86902 -106.65465,-90.75 z"
       id="path4824"
       inkscape:connector-curvature="0" />
  </g>
</svg>
